# xmcd
#
# Track frame offsets:
#	150
#	4068
#	7794
#	11811
#	16020
#	20889
#	23352
#	27995
#	32155
#	36385
#	41094
#	45602
#	48270
#	52455
#	56253
#	60888
#	64446
#	71277
#	75554
#	80021
#	84110
#	88280
#	93209
#	97437
#	101645
#	106297
#	109981
#	113968
#	118217
#	122955
#	127295
#	130865
#	134842
#	138689
#	142753
#	147007
#	151023
#	155738
#	160693
#	165003
#	169389
#	173957
#	178512
#	182971
#	187656
#	193658
#	197667
#
# Disc length: 2671 seconds
#
# Revision: 1
# Processed by: cddbd v1.5.1PL0 Copyright (c) Steve Scherf et al.
# Submitted via: CDex 1.50Beta5
#
DISCID=8a0a6d2f
DTITLE=様々なアーティスト - DB(データベース)1700:使える英単語・熟語『B』
DYEAR=1900
DGENRE=Other
TTITLE0=トラック1
TTITLE1=トラック2
TTITLE2=トラック3
TTITLE3=トラック4
TTITLE4=トラック5
TTITLE5=トラック6
TTITLE6=トラック7
TTITLE7=トラック8
TTITLE8=トラック9
TTITLE9=トラック10
TTITLE10=トラック11
TTITLE11=トラック12
TTITLE12=トラック13
TTITLE13=トラック14
TTITLE14=トラック15
TTITLE15=トラック16
TTITLE16=トラック17
TTITLE17=トラック18
TTITLE18=トラック19
TTITLE19=トラック20
TTITLE20=トラック21
TTITLE21=トラック22
TTITLE22=トラック23
TTITLE23=トラック24
TTITLE24=トラック25
TTITLE25=トラック26
TTITLE26=トラック27
TTITLE27=トラック28
TTITLE28=トラック29
TTITLE29=トラック30
TTITLE30=トラック31
TTITLE31=トラック32
TTITLE32=トラック33
TTITLE33=トラック34
TTITLE34=トラック35
TTITLE35=トラック36
TTITLE36=トラック37
TTITLE37=トラック38
TTITLE38=トラック39
TTITLE39=トラック40
TTITLE40=トラック41
TTITLE41=トラック42
TTITLE42=トラック43
TTITLE43=トラック44
TTITLE44=トラック45
TTITLE45=トラック46
TTITLE46=トラック47
EXTD=
EXTT0=
EXTT1=
EXTT2=
EXTT3=
EXTT4=
EXTT5=
EXTT6=
EXTT7=
EXTT8=
EXTT9=
EXTT10=
EXTT11=
EXTT12=
EXTT13=
EXTT14=
EXTT15=
EXTT16=
EXTT17=
EXTT18=
EXTT19=
EXTT20=
EXTT21=
EXTT22=
EXTT23=
EXTT24=
EXTT25=
EXTT26=
EXTT27=
EXTT28=
EXTT29=
EXTT30=
EXTT31=
EXTT32=
EXTT33=
EXTT34=
EXTT35=
EXTT36=
EXTT37=
EXTT38=
EXTT39=
EXTT40=
EXTT41=
EXTT42=
EXTT43=
EXTT44=
EXTT45=
EXTT46=
PLAYORDER=
